<?xml version="1.0" encoding="utf-8"?>
<!-- Generator: Adobe Illustrator 24.0.3, SVG Export Plug-In . SVG Version: 6.00 Build 0)  -->
<svg version="1.1" id="レイヤー_1" xmlns="http://www.w3.org/2000/svg" xmlns:xlink="http://www.w3.org/1999/xlink" x="0px"
	 y="0px" viewBox="0 0 1480 1570.9" style="enable-background:new 0 0 1480 1570.9;" xml:space="preserve">
<style type="text/css">
	.st0{fill:none;stroke:#000000;stroke-width:5;stroke-linecap:round;stroke-linejoin:round;}
</style>
<g>
	<path class="st0" d="M793,1040.7H689.8c-7.1,0-12.9-5.8-12.9-12.9v-65.2c0-7.1,5.8-12.9,12.9-12.9H793c7.1,0,12.9,5.8,12.9,12.9
		v65.2C805.9,1034.8,800.1,1040.7,793,1040.7z"/>
	<circle class="st0" cx="741.4" cy="996.2" r="28.2"/>
	<path class="st0" d="M708.2,948l12.3-13.7c2-2.9,5.4-5.2,9.3-5.2H755c3.9,0,7.3,2.3,9.3,5.2l10.2,13.7"/>
	<circle cx="787.1" cy="969.2" r="5"/>
</g>
<g>
	<path d="M670.5,1091.4l-10.9-16.6v16.6h-3.6v-23.6h3.3l10.9,16.5v-16.5h3.6v23.6H670.5z"/>
	<path d="M697.1,1089.1c-1.6,1.6-3.7,2.5-6.2,2.5c-2.5,0-4.6-0.9-6.2-2.5c-2.3-2.3-2.3-4.9-2.3-9.5s0-7.1,2.3-9.5
		c1.6-1.6,3.7-2.5,6.2-2.5c2.5,0,4.6,0.9,6.2,2.5c2.3,2.3,2.3,4.9,2.3,9.5S699.4,1086.8,697.1,1089.1z M694.4,1072.3
		c-0.8-0.9-2.1-1.5-3.5-1.5c-1.4,0-2.7,0.6-3.5,1.5c-1.2,1.3-1.4,2.6-1.4,7.3s0.2,6.1,1.4,7.3c0.8,0.9,2.1,1.5,3.5,1.5
		c1.4,0,2.7-0.6,3.5-1.5c1.2-1.3,1.4-2.6,1.4-7.3S695.5,1073.6,694.4,1072.3z"/>
	<path d="M719.2,1091.4v-23.6h3.6v23.6H719.2z"/>
	<path d="M749.4,1091.4v-15.8l-5.4,11.5h-2.6l-5.6-11.5v15.8h-3.6v-23.6h3.6l6.9,14.7l6.8-14.7h3.6v23.6H749.4z"/>
	<path d="M776,1091.4l-1.6-4.7h-9.3l-1.6,4.7h-3.8l8.6-23.6h2.9l8.6,23.6H776z M769.8,1073.2l-3.7,10.5h7.2L769.8,1073.2z"/>
	<path d="M800.2,1089c-1.8,1.9-4,2.7-6.5,2.7c-2.4,0-4.6-0.9-6.2-2.5c-2.3-2.3-2.3-4.9-2.3-9.5s0-7.1,2.3-9.5
		c1.6-1.6,3.7-2.5,6.2-2.5c5,0,7.9,3.3,8.6,7.3h-3.6c-0.6-2.6-2.3-4.1-5-4.1c-1.4,0-2.6,0.6-3.5,1.5c-1.2,1.3-1.4,2.6-1.4,7.3
		s0.3,6.1,1.4,7.3c0.8,0.9,2.1,1.4,3.5,1.4c1.6,0,2.9-0.6,3.8-1.7c0.9-1,1.2-2.2,1.2-3.7v-1.3h-5v-3h8.6v3.6
		C802.3,1085.3,801.8,1087.3,800.2,1089z"/>
	<path d="M810.9,1091.4v-23.6H826v3.2h-11.5v6.9h9.8v3.2h-9.8v7.1H826v3.2H810.9z"/>
</g>
</svg>
